<?xml version="1.0" encoding="utf-8"?>
<!-- Generator: Adobe Illustrator 18.0.0, SVG Export Plug-In . SVG Version: 6.00 Build 0)  -->
<!DOCTYPE svg PUBLIC "-//W3C//DTD SVG 1.1//EN" "http://www.w3.org/Graphics/SVG/1.1/DTD/svg11.dtd">
<svg version="1.1" id="Layer_1" xmlns="http://www.w3.org/2000/svg" xmlns:xlink="http://www.w3.org/1999/xlink" x="0px" y="0px"
	 viewBox="0 0 48 48" enable-background="new 0 0 48 48" xml:space="preserve">
<g>
	<path d="M9.7,11.6c-0.4,0.4-0.4,1,0,1.4c0.2,0.2,0.5,0.3,0.7,0.3c0.3,0,0.5-0.1,0.7-0.3c1.9-1.9,1.9-5.1,0-7c-1.1-1.1-1.1-3,0-4.2
		c0.4-0.4,0.4-1,0-1.4c-0.4-0.4-1-0.4-1.4,0c-1.9,1.9-1.9,5.1,0,7C10.9,8.6,10.9,10.5,9.7,11.6z"/>
	<path d="M16.4,9.6c0,0.8-0.3,1.5-0.9,2.1c-0.4,0.4-0.4,1,0,1.4c0.2,0.2,0.5,0.3,0.7,0.3c0.3,0,0.5-0.1,0.7-0.3
		c0.9-0.9,1.4-2.2,1.4-3.5S17.8,7,16.9,6.1c-1.1-1.1-1.1-3,0-4.2c0.4-0.4,0.4-1,0-1.4c-0.4-0.4-1-0.4-1.4,0c-1.9,1.9-1.9,5.1,0,7
		C16.1,8,16.4,8.8,16.4,9.6z"/>
	<path d="M22.1,9.6c0,0.8-0.3,1.5-0.9,2.1c-0.4,0.4-0.4,1,0,1.4c0.2,0.2,0.5,0.3,0.7,0.3c0.3,0,0.5-0.1,0.7-0.3
		c0.9-0.9,1.4-2.2,1.4-3.5S23.6,7,22.7,6.1c-1.1-1.1-1.1-3,0-4.2c0.4-0.4,0.4-1,0-1.4c-0.4-0.4-1-0.4-1.4,0c-1.9,1.9-1.9,5.1,0,7
		C21.8,8,22.1,8.8,22.1,9.6z"/>
	<path d="M45,27.3H31.4c0,0,0,0,0,0H31c-0.2-3-2.6-5.4-5.6-5.4c0,0,0,0-0.1,0c-0.7-2.3-2.9-3.9-5.4-3.9c-1.9,0-3.6,0.9-4.6,2.4
		c-0.5-0.1-1-0.2-1.5-0.2c-2,0-3.9,1.1-4.9,2.8c-0.6-0.2-1.3-0.3-1.9-0.3c-2.8,0-5.1,2-5.6,4.6H1c-0.3,0-0.5,0.1-0.7,0.3
		C0.1,27.7,0,28,0,28.3c0,7,1.2,13.5,3.5,18.9c0.2,0.4,0.5,0.6,0.9,0.6H28c0.4,0,0.8-0.2,0.9-0.6c1.7-4.1,2.8-8.9,3.3-14H45
		c1.6,0,3-1.3,3-3S46.7,27.3,45,27.3z M7,24.6c0.7,0,1.3,0.2,1.9,0.5c0.3,0.2,0.6,0.2,0.9,0.1c0.3-0.1,0.5-0.3,0.6-0.6
		c0.7-2,3-3,5-2.1c0.5,0.2,1.1,0,1.3-0.5c0.6-1.3,1.9-2.1,3.3-2.1c1.8,0,3.4,1.4,3.6,3.2c0,0.3,0.2,0.5,0.4,0.7
		c0.2,0.2,0.5,0.2,0.8,0.2c0.3,0,0.5-0.1,0.7-0.1c1.9,0,3.5,1.5,3.6,3.4H3.6C4,25.7,5.4,24.6,7,24.6z M30.4,29.6
		c0,0.6,0,1.1-0.1,1.7c0,0.1,0,0.3,0,0.4c-0.3,5.2-1.4,10.1-3,14.2H5.1C3.2,41.1,2.1,35.2,2,29.2h0.4c0,0,0,0,0,0s0,0,0,0h28
		C30.4,29.4,30.4,29.5,30.4,29.6z M45,31.2H32.3c0-0.1,0.1-1.5,0.1-1.9H45c0.5,0,1,0.4,1,1S45.6,31.2,45,31.2z"/>
</g>
</svg>
