<?xml version="1.0" encoding="utf-8"?>
<!-- Generator: Adobe Illustrator 18.0.0, SVG Export Plug-In . SVG Version: 6.00 Build 0)  -->
<!DOCTYPE svg PUBLIC "-//W3C//DTD SVG 1.1//EN" "http://www.w3.org/Graphics/SVG/1.1/DTD/svg11.dtd">
<svg version="1.1" id="Layer_1" xmlns="http://www.w3.org/2000/svg" xmlns:xlink="http://www.w3.org/1999/xlink" x="0px" y="0px"
	 viewBox="0 0 48 48" enable-background="new 0 0 48 48" xml:space="preserve">
<g>
	<path d="M32,28.3c-0.4,0.4-0.4,1,0,1.4c3.5,3.5,4.3,8.6,1.8,11.2c-0.4,0.4-0.4,1,0,1.4c0.2,0.2,0.5,0.3,0.7,0.3
		c0.3,0,0.5-0.1,0.7-0.3c3.3-3.3,2.5-9.7-1.8-14C33.1,27.9,32.4,27.9,32,28.3z"/>
	<path d="M45.8,22c0.5,0.1,1.1-0.3,1.2-0.8c0.1-0.5-0.3-1.1-0.8-1.2c-1.9-0.3-3.5-0.1-4.8,0.3c0.4-1.3,0.6-2.9,0.3-4.8
		c-0.1-0.5-0.6-0.9-1.2-0.8c-0.5,0.1-0.9,0.6-0.8,1.2c0.5,2.7-0.4,4.7-1.2,5.8c-0.3,0.2-0.5,0.4-0.7,0.6l-0.5-0.5
		c0.6-0.8,1.6-2.7,1-5.7c-0.1-0.5-0.6-0.9-1.2-0.8c-0.5,0.1-0.9,0.6-0.8,1.2c0.3,2-0.1,3.3-0.5,3.9l-0.1-0.1c-0.4-0.4-1-0.4-1.4,0
		L32,22.7c-2.3-1.3-4.8-1.9-7.2-1.9c-2,0-4,0.5-5.6,1.4c-0.4-1.5-0.8-3-1.2-4.3c0.3,0.1,0.6,0.1,0.9,0.1c0.6,0,1-0.4,1-1
		c0-5.4-2-10.1-5.1-12.3V1c0-0.6-0.4-1-1-1H8.7c-0.6,0-1,0.4-1,1v3.7C4.6,6.9,2.7,11.6,2.7,17c0,0.6,0.4,1,1,1
		c0.9,0,1.7-0.2,2.5-0.5C6,19.6,5.9,22,5.6,24.2c-0.1,0.6-0.2,1.4-0.4,2.1c-0.1,1.9-2.3,6.2-2.3,6.2c0,0,0,0.1-0.1,0.1
		c-0.1,0.2-1.6,3.6-1.8,4.7c-0.3,2.5,0.4,5,1.9,7C5.8,48,10.1,48,10.5,48c1.8,0,3.6-0.6,5.2-1.6c0.1,0,0.2,0.1,0.3,0.1
		c0.2,0,5.6,1,11.1,1c5.3,0,8.9-0.9,10.7-2.7c3.8-3.8,4.1-9.9,1.2-15.2l2.4-2.4c0.2-0.2,0.3-0.4,0.3-0.7s-0.1-0.5-0.3-0.7l-0.2-0.2
		c0.7-0.4,1.9-0.9,3.9-0.5c0.5,0.1,1.1-0.3,1.2-0.8c0.1-0.5-0.3-1.1-0.8-1.2c-3-0.5-4.9,0.4-5.7,1l-0.3-0.3c0.2-0.2,0.4-0.4,0.6-0.7
		C41.1,22.4,43.1,21.6,45.8,22z M4.7,15.8c0.3-4.4,2-8.2,4.5-9.7c0.3-0.2,0.5-0.5,0.5-0.9V2h3.2v3.2c0,0.4,0.2,0.7,0.5,0.9
		c2.5,1.5,4.3,5.3,4.5,9.7c-2.1-0.6-3.4-2.8-3.5-3c0,0-0.1-0.1-0.1-0.1c-0.5-0.6-1.3-0.2-1.3-0.2c0,0,0,0,0,0
		c-0.3,0.2-0.4,0.5-0.4,0.8c0.1,3.1-1,6.1-1.2,6.6c0,0,0,0,0,0c-0.8-1.9-1.2-4.2-1.2-6.6c0-0.1,0-0.2-0.1-0.3
		c-0.1-0.3-0.4-0.6-0.7-0.6c-0.1,0-0.2,0-0.3,0c-0.3,0-0.7,0.2-0.9,0.5C8.1,13,6.7,15.3,4.7,15.8z M15.6,25.7
		C15.6,25.7,15.6,25.8,15.6,25.7c-2.5,5.2-1.2,15.2-0.7,18.8c-1.5,1.1-3.4,1.7-5.4,1.4c-2-0.2-3.7-1.3-5-2.8
		c-1.2-1.6-1.8-3.5-1.5-5.5c0.1-0.9,0.4-1.7,0.8-2.5c0,0,3.5-6,3.7-10.6C8,21.7,8.1,18.7,8.2,16c0,0,0,0,0,0
		c0.3,2.5,1.1,4.8,2.2,6.7c0.2,0.3,0.5,0.5,0.9,0.5c0.3,0,0.6-0.2,0.8-0.4c0,0,0-0.1,0.1-0.1c2-3.5,2.2-6.2,2.2-6.5
		c0-0.1,0-0.1,0-0.2c0.2,0.2,0.4,0.4,0.6,0.5c0,0,0,0,0,0c0,0,0,0,0,0c0.2,0.1,0.3,0.2,0.5,0.4c0,0,0.1,0,0.1,0.1
		c0.6,1.9,1.2,4.1,1.8,6.4c-0.2,0.2-0.4,0.3-0.6,0.5c0,0,0,0,0,0c0,0,0,0,0,0c0,0,0,0,0,0c0,0,0,0,0,0c-0.2,0.2-0.4,0.5-0.6,0.8
		c0,0,0,0.1-0.1,0.1C16,25.1,15.8,25.4,15.6,25.7z M36.4,43.4c-1,1-3.4,2.1-9.3,2.1c-4.2,0-8.5-0.6-10.1-0.9c-0.2-1.2-0.7-5.7-0.7-6
		c0,0,0,0,0,0c-0.1-1.4-1-11.2,2.5-13.8c0.1-0.1,0.2-0.1,0.2-0.2c1.6-1.2,3.5-1.9,5.7-1.9c3.5,0,7,1.6,9.8,4.3
		C39.6,32.1,40.4,39.4,36.4,43.4z M37.9,28c-0.6-0.8-2.6-3.3-4.2-4.1l1.3-1.3l4.1,4.1L37.9,28z"/>
</g>
</svg>
