<?xml version="1.0" encoding="utf-8"?>
<!-- Generator: Adobe Illustrator 18.0.0, SVG Export Plug-In . SVG Version: 6.00 Build 0)  -->
<!DOCTYPE svg PUBLIC "-//W3C//DTD SVG 1.1//EN" "http://www.w3.org/Graphics/SVG/1.1/DTD/svg11.dtd">
<svg version="1.1" id="Layer_1" xmlns="http://www.w3.org/2000/svg" xmlns:xlink="http://www.w3.org/1999/xlink" x="0px" y="0px"
	 viewBox="0 0 48 48" enable-background="new 0 0 48 48" xml:space="preserve">
<g>
	<path d="M47,5h-7.2V1c0-0.6-0.4-1-1-1H9.2c-0.6,0-1,0.4-1,1v4H1C0.4,5,0,5.4,0,6v5c0,0.6,0.4,1,1,1h2v35c0,0.6,0.4,1,1,1h12
		c0.6,0,1-0.4,1-1V33.1c0-3.9,3.1-7,7-7s7,3.1,7,7V47c0,0.6,0.4,1,1,1h12c0.6,0,1-0.4,1-1V12h2c0.6,0,1-0.4,1-1V6
		C48,5.4,47.6,5,47,5z M10.2,2h27.7v8H10.2V2z M2,10V7h6.2v3H2z M43,46H33V33.1c0-5-4-9-9-9s-9,4-9,9V46H5V12h38V46z M46,10h-6.2V7
		H46V10z"/>
	<polygon points="14.4,6.5 16.2,6.5 16.2,8.3 17.2,8.3 17.2,3.8 16.2,3.8 16.2,5.7 14.4,5.7 14.4,3.8 13.4,3.8 13.4,8.3 14.4,8.3 	
		"/>
	<path d="M20.4,8.3c0.7,0,1.2-0.2,1.7-0.7c0.5-0.4,0.7-1,0.7-1.7c0-0.7-0.2-1.2-0.7-1.7c-0.5-0.4-1-0.7-1.7-0.7s-1.2,0.2-1.7,0.7
		c-0.5,0.4-0.7,1-0.7,1.7c0,0.7,0.2,1.2,0.7,1.7C19.2,8.1,19.8,8.3,20.4,8.3z M19.5,5c0.3-0.3,0.6-0.4,1-0.4c0.4,0,0.7,0.1,1,0.4
		c0.3,0.3,0.4,0.6,0.4,1s-0.1,0.7-0.4,1c-0.3,0.3-0.6,0.4-1,0.4c-0.4,0-0.7-0.1-1-0.4c-0.3-0.3-0.4-0.6-0.4-1S19.2,5.3,19.5,5z"/>
	<polygon points="24.4,8.3 25.4,8.3 25.4,4.6 26.7,4.6 26.7,3.8 23.2,3.8 23.2,4.6 24.4,4.6 	"/>
	<polygon points="30.8,7.4 28.5,7.4 28.5,6.5 30.5,6.5 30.5,5.6 28.5,5.6 28.5,4.7 30.7,4.7 30.7,3.8 27.5,3.8 27.5,8.3 30.8,8.3 	
		"/>
	<polygon points="34.6,7.4 32.7,7.4 32.7,3.8 31.7,3.8 31.7,8.3 34.6,8.3 	"/>
	<path d="M32.4,14.1H15.6c-0.6,0-1,0.4-1,1s0.4,1,1,1h16.8c0.6,0,1-0.4,1-1S32.9,14.1,32.4,14.1z"/>
	<path d="M32.4,19.4H15.6c-0.6,0-1,0.4-1,1s0.4,1,1,1h16.8c0.6,0,1-0.4,1-1S32.9,19.4,32.4,19.4z"/>
	<path d="M38.1,23c-0.6,0-1,0.4-1,1v16.8c0,0.6,0.4,1,1,1s1-0.4,1-1V24C39.1,23.4,38.7,23,38.1,23z"/>
	<path d="M9.2,23c-0.6,0-1,0.4-1,1v16.8c0,0.6,0.4,1,1,1s1-0.4,1-1V24C10.2,23.4,9.7,23,9.2,23z"/>
</g>
</svg>
