<?xml version="1.0" encoding="utf-8"?>
<!-- Generator: Adobe Illustrator 18.0.0, SVG Export Plug-In . SVG Version: 6.00 Build 0)  -->
<!DOCTYPE svg PUBLIC "-//W3C//DTD SVG 1.1//EN" "http://www.w3.org/Graphics/SVG/1.1/DTD/svg11.dtd">
<svg version="1.1" id="Layer_1" xmlns="http://www.w3.org/2000/svg" xmlns:xlink="http://www.w3.org/1999/xlink" x="0px" y="0px"
	 viewBox="0 0 48 48" enable-background="new 0 0 48 48" xml:space="preserve">
<g>
	<path d="M47.9,31.7c0-0.1,0-0.2,0-0.3c0,0,0,0,0,0c0,0,0,0,0,0c0,0,0,0,0,0c-0.3-5.8-3.7-10.7-8.5-13.1C38.5,10.5,31.8,4.5,24,4.5
		c-7.8,0-14.5,6-15.5,13.7C3.7,20.6,0.3,25.5,0,31.3c0,0,0,0,0,0c0,0,0,0,0,0c0,0,0,0,0,0c0,0.1,0,0.2,0,0.3c0,0,0,0,0,0.1
		c0,0,0,0,0,0c1.8,4.1,5.6,6.8,10,7.3v3.4c0,0.6,0.4,1,1,1H37c0.6,0,1-0.4,1-1v-3.4c4.3-0.5,8.2-3.2,10-7.3
		C47.9,31.8,47.9,31.8,47.9,31.7C47.9,31.8,47.9,31.7,47.9,31.7z M24,6.5c6.4,0,12,4.6,13.3,10.8c-0.8-0.3-1.6-0.5-2.4-0.6
		c-1.5-4.7-5.8-8-10.9-8c-5,0-9.4,3.3-10.9,8c-0.8,0.1-1.7,0.3-2.4,0.6C12,11.1,17.5,6.5,24,6.5z M30.5,16.6c-1.3-2.4-3.8-4-6.5-4
		c-2.8,0-5.3,1.5-6.5,4c-0.6-0.1-1.2-0.1-1.9-0.1c-0.1,0-0.2,0-0.2,0c1.4-3.5,4.8-5.8,8.7-5.8c3.8,0,7.2,2.3,8.7,5.8
		c-0.1,0-0.2,0-0.2,0C31.8,16.5,31.2,16.6,30.5,16.6z M24,19c-1.4-0.9-2.9-1.5-4.4-2c1-1.5,2.6-2.4,4.5-2.4c1.8,0,3.5,0.9,4.5,2.4
		C26.9,17.5,25.3,18.1,24,19z M2.1,30.4c0.6-4.7,3.6-8.6,7.6-10.6c0.1,0,0.1-0.1,0.2-0.1c1.2-0.6,2.6-0.9,3.9-1.1c0,0,0,0,0,0
		c0.1,0,0.2,0,0.3-0.1c0.4,0,0.9-0.1,1.3-0.1c2.4,0,4.7,0.6,6.7,1.8c-0.6,0.5-1.2,1.1-1.7,1.7c-1.6-0.8-3.3-1.2-5-1.2
		c-5.6,0-10.4,4.2-11.2,9.7H2.1z M10.4,30.4c0.7-2.2,2.8-3.7,5.1-3.7c0.7,0,1.4,0.1,2.1,0.4c-0.4,1.1-0.6,2.2-0.7,3.3H10.4z
		 M18.4,25.3c-0.9-0.4-1.9-0.6-2.8-0.6c-3.5,0-6.4,2.4-7.2,5.7h-2c0.8-4.4,4.7-7.7,9.2-7.7c1.3,0,2.6,0.3,3.8,0.8
		C19,24.1,18.7,24.7,18.4,25.3z M36,41.5H12v-2.3H36V41.5z M36.6,37.2H11.4c-3.6,0-6.9-1.8-8.7-4.8h42.7
		C43.4,35.4,40.2,37.2,36.6,37.2z M39.6,30.4c-0.8-3.3-3.7-5.7-7.2-5.7c-3.5,0-6.4,2.4-7.2,5.7h-2c0.8-4.4,4.7-7.7,9.2-7.7
		s8.4,3.3,9.2,7.7H39.6z M37.6,30.4H27.3c0.7-2.2,2.8-3.7,5.1-3.7C34.8,26.7,36.8,28.2,37.6,30.4z M43.7,30.4
		c-0.8-5.5-5.6-9.7-11.2-9.7S22,24.9,21.2,30.4h-2.2c0.7-5.9,5.2-10.6,10.9-11.7c0,0,0.1,0,0.1,0c0.1,0,0.2,0,0.4-0.1c0,0,0,0,0,0
		c0.7-0.1,1.4-0.2,2.1-0.2c6.9,0,12.6,5.2,13.5,11.9H43.7z"/>
</g>
</svg>
